<?xml version="1.0" encoding="utf-8"?>
<?xml-stylesheet type="text/xsl" href="rss1.xsl"?>
<rss version="2.0" xmlns:atom="http://www.w3.org/2005/Atom" xmlns:content="http://purl.org/rss/1.0/modules/content/" xmlns:dc="http://purl.org/dc/elements/1.1/" xmlns:media="http://search.yahoo.com/mrss/">
<channel>
 <title>Getty</title>
 <link>http://www.gettyimg.com/</link>
 <atom:link href="http://www.gettyimg.com/" rel="self" type="application/rss+xml" />

 
                <item>
                <title><![CDATA[【Requests】[REQ VID] - Katy.Perry.Making.Of.The.Pepsi.Super.Bowl.Halftime.Show.1080p.HDTV.x264-WaLMaRT]]></title>
                <link><![CDATA[https://sharemania.us/threads/katy-perry-making-of-the-pepsi-super-bowl-halftime-show-1080p-hdtv-x264-walmart.220371/]]></link>
                <description><![CDATA[<article>
<blockquote class="messageText SelectQuoteContainer ugc baseHtml">
Looking for :<br>
Katy.Perry.Making.Of.The.Pepsi.Super.Bowl.Halftime.Show.1080p.HDTV.x264-WaLMaRT<br>
<br>
<br>
<img src="styles/default/xenforo/smilies/unhappy-48.png" class="mceSmilie" alt=":(" title="Frown    :("><br>
I know someone in the forum has already uploaded TrollHD's version, but I was hoping I could find WaLMaRT's version.
<div class="messageTextEndMarker">&nbsp;</div>
</blockquote>
</article>]]></description>
                <author><![CDATA[drsouchan]]></author>
                </item>

                
                <item>
                <title><![CDATA[【HD Live Performances】HDTV - Ke$ha - Tik Tok (La Chanson De L'annee 07.01.2011) HD-1080i ExoCaps]]></title>
                <link><![CDATA[https://sharemania.us/threads/ke-ha-tik-tok-la-chanson-de-lannee-07-01-2011-hd-1080i-exocaps.220372/]]></link>
                <description><![CDATA[<article>
<blockquote class="messageText SelectQuoteContainer ugc baseHtml">
<img src="https://images2.imgbox.com/51/db/3XhtXPZi_o.jpg" class="bbCodeImage LbImage" alt="[​IMG]" data-url="https://images2.imgbox.com/51/db/3XhtXPZi_o.jpg" style=""> <img src="https://images2.imgbox.com/14/3b/sGp3S0Wd_o.jpg" class="bbCodeImage LbImage" alt="[​IMG]" data-url="https://images2.imgbox.com/14/3b/sGp3S0Wd_o.jpg" style=""> <img src="https://images2.imgbox.com/d7/5a/a3vuqto1_o.jpg" class="bbCodeImage LbImage" alt="[​IMG]" data-url="https://images2.imgbox.com/d7/5a/a3vuqto1_o.jpg" style=""> <img src="https://images2.imgbox.com/04/46/LLXsFbAL_o.jpg" class="bbCodeImage LbImage" alt="[​IMG]" data-url="https://images2.imgbox.com/04/46/LLXsFbAL_o.jpg" style=""> <br>
<br>
<div class="bbCodeBlock bbCodeCode">
<div class="type">Code:</div>
<pre>

General
ID                             : 1 (0x1)
Format                         : MPEG-TS
File size                      : 373 MiB
Duration                       : 4 min 29 s
Overall bit rate mode          : Variable
Overall bit rate               : 11.6 Mb/s
Frame rate                     : 25.000 FPS

Video
ID                             : 1048 (0x418)
Menu ID                        : 1 (0x1)
Format                         : AVC
Format/Info                    : Advanced Video Codec
Format profile                 : Main@L4
Format settings                : CABAC / 2 Ref Frames
Format settings, CABAC         : Yes
Format settings, Reference fra : 2 frames
Format settings, GOP           : M=3, N=15
Codec ID                       : 27
Duration                       : 4 min 29 s
Bit rate                       : 10.8 Mb/s
Width                          : 1 920 pixels
Height                         : 1 080 pixels
Display aspect ratio           : 16:9
Frame rate                     : 25.000 FPS
Color space                    : YUV
Chroma subsampling             : 4:2:0
Bit depth                      : 8 bits
Scan type                      : MBAFF
Scan type, store method        : Interleaved fields
Scan order                     : Top Field First
Bits/(Pixel*Frame)             : 0.209
Stream size                    : 349 MiB (93%)
Color range                    : Limited
Color primaries                : BT.709
Transfer characteristics       : BT.709
Matrix coefficients            : BT.709

Audio
ID                             : 1049 (0x419)
Menu ID                        : 1 (0x1)
Format                         : MPEG Audio
Format version                 : Version 1
Format profile                 : Layer 2
Codec ID                       : 3
Duration                       : 4 min 29 s
Bit rate mode                  : Constant
Bit rate                       : 192 kb/s
Channel(s)                     : 2 channels
Sampling rate                  : 48.0 kHz
Frame rate                     : 41.667 FPS (1152 SPF)
Compression mode               : Lossy
Stream size                    : 6.17 MiB (2%)
Language                       : French

Text #1
ID                             : 1052 (0x41C)-888
Menu ID                        : 1 (0x1)
Format                         : Teletext Subtitle
Language                       : French
Language, more info            : For hearing impaired people

Text #2
ID                             : 1052 (0x41C)-889
Menu ID                        : 1 (0x1)
Format                         : Teletext Subtitle
Language                       : English

</pre>
</div><br>
Baidu Pan &amp; Pixeldrain<br>
<div class="bbCodeBlock bbCodeVfcHH HiddenContent">
<div class="attribution type">Hidden Content:</div>
<blockquote>You must reply before you can see the hidden data contained here.</blockquote>
</div>
<div class="messageTextEndMarker">&nbsp;</div>
</blockquote>
</article>]]></description>
                <author><![CDATA[drsouchan]]></author>
                </item>

                </channel></rss>